<?xml version="1.0" encoding="UTF-8" standalone="no"?>
<!-- Created with Inkscape (http://www.inkscape.org/) -->

<svg
   xmlns:dc="http://purl.org/dc/elements/1.1/"
   xmlns:cc="http://creativecommons.org/ns#"
   xmlns:rdf="http://www.w3.org/1999/02/22-rdf-syntax-ns#"
   xmlns:svg="http://www.w3.org/2000/svg"
   xmlns="http://www.w3.org/2000/svg"
   xmlns:sodipodi="http://sodipodi.sourceforge.net/DTD/sodipodi-0.dtd"
   xmlns:inkscape="http://www.inkscape.org/namespaces/inkscape"
   width="304.77286"
   height="81.02375"
   id="svg3815"
   version="1.1"
   inkscape:version="0.48.4 r9939"
   sodipodi:docname="logoSito.svg">
  <defs
     id="defs3817">
    <clipPath
       clipPathUnits="userSpaceOnUse"
       id="clipPath246">
      <path
         inkscape:connector-curvature="0"
         d="m 190.535,2903.93 c 20.09,0 46.52,6.21 65.809,11.89 l 2.207,-56.35 c -29.75,-7.43 -62.735,-14.52 -85.442,-14.52 -22.722,0 -44.16,3.5 -64.32,10.48 -41.8788,14.86 -55.4218,53.08 -40.6445,114.68 l 20.1289,83.87 c 7.4336,31.02 19.7926,57.01 37.0586,77.98 29.664,36.26 68.52,54.39 116.582,54.39 35.024,0 60.66,-13.25 87.844,-32.79 l -33.395,-46.42 c -20.117,13.99 -33.281,21.65 -54.195,21.55 -15.508,-0.08 -29.027,-2.19 -40.559,-6.55 -27.527,-10.93 -45.109,-32.34 -52.761,-64.23 l -22.797,-95.01 c -9.434,-39.31 12.062,-58.97 64.484,-58.97 z"
         id="path248" />
    </clipPath>
    <linearGradient
       x1="0"
       y1="0"
       x2="1"
       y2="0"
       gradientUnits="userSpaceOnUse"
       gradientTransform="matrix(11.9962,40.6434,40.6434,-11.9962,19.5063,303.065)"
       spreadMethod="pad"
       id="linearGradient250">
      <stop
         style="stop-opacity:1;stop-color:#3871c1"
         offset="0"
         id="stop252" />
      <stop
         style="stop-opacity:1;stop-color:#24265d"
         offset="0.894069"
         id="stop254" />
      <stop
         style="stop-opacity:1;stop-color:#24265d"
         offset="1"
         id="stop256" />
    </linearGradient>
    <clipPath
       clipPathUnits="userSpaceOnUse"
       id="clipPath198">
      <path
         inkscape:connector-curvature="0"
         d="m 1260.65,3162.98 c -19.16,8.45 -39.26,12.7 -60.23,12.7 -14.33,0 -34.09,-3.39 -49.34,-7.45 l -13.85,-56.18 c 6.08,1.43 14.57,2.38 19.63,3.37 8.14,1.58 16.7,2.4 25.69,2.4 22.05,0 37.18,-5.75 45.49,-17.18 7.36,-10.18 8.85,-24.39 4.5,-42.59 l -25.7,-108.12 c -3.02,-12.74 -9.67,-23.25 -19.92,-31.51 -10.22,-8.25 -21.89,-13.76 -35.09,-16.53 -13.17,-2.75 -26.34,-4.15 -39.44,-4.15 -13.14,0 -25.36,1.3 -36.61,3.84 l 93.53,393.24 -61.44,-14.84 -101.94,-428.67 c 35.27,-5.06 68.35,-7.6 99.3,-7.6 30.95,0 60.47,6.34 88.5,19.08 37.11,16.95 60.65,46.42 70.65,88.39 l 28.59,120.19 c 10.57,44.54 -0.23,75.04 -32.32,91.61 z"
         id="path200" />
    </clipPath>
    <linearGradient
       x1="0"
       y1="0"
       x2="1"
       y2="0"
       gradientUnits="userSpaceOnUse"
       gradientTransform="matrix(11.996,40.6428,40.6428,-11.996,108.376,276.835)"
       spreadMethod="pad"
       id="linearGradient202">
      <stop
         style="stop-opacity:1;stop-color:#3871c1"
         offset="0"
         id="stop204" />
      <stop
         style="stop-opacity:1;stop-color:#24265d"
         offset="0.894069"
         id="stop206" />
      <stop
         style="stop-opacity:1;stop-color:#24265d"
         offset="1"
         id="stop208" />
    </linearGradient>
    <clipPath
       clipPathUnits="userSpaceOnUse"
       id="clipPath180">
      <path
         inkscape:connector-curvature="0"
         d="m 1008.07,3145.8 c -13.175,19.47 -35.011,29.26 -65.55,29.26 -28.665,0 -72.864,-14.34 -109.161,-30.88 -0.117,0.14 -0.211,0.27 -0.316,0.41 -0.059,-0.04 -0.113,-0.07 -0.168,-0.09 -0.457,0.65 -1.02,1.22 -1.504,1.84 -8.328,8.91 -18.777,16.49 -31.484,22.64 -11.035,3.97 -23.828,6.08 -38.617,6.08 -22.051,0 -43.196,-5.1 -63.426,-15.26 l 1.961,11.9 -59.106,-14.18 -72.816,-306.21 57.91,0 60.191,253.15 c 22.649,11.45 42.625,17.15 60.016,17.15 17.391,0 30.797,-5.7 40.137,-17.15 9.394,-11.46 11.258,-28.83 5.718,-52.14 l -47.796,-201.01 57.867,0 52.508,220.89 -0.125,0.04 c 0.996,9.77 0.668,19.27 -0.852,28.51 l 19.887,10.7 c 18.922,6.37 34.683,9.55 47.414,9.55 33.484,0 44.894,-22.48 34.215,-67.44 l -48.086,-202.25 57.863,0 52.33,220.06 c 7.16,30.12 4.13,54.9 -9.01,74.43 z"
         id="path182" />
    </clipPath>
    <linearGradient
       x1="0"
       y1="0"
       x2="1"
       y2="0"
       gradientUnits="userSpaceOnUse"
       gradientTransform="matrix(11.9961,40.6432,40.6432,-11.9961,76.1157,286.357)"
       spreadMethod="pad"
       id="linearGradient184">
      <stop
         style="stop-opacity:1;stop-color:#3871c1"
         offset="0"
         id="stop186" />
      <stop
         style="stop-opacity:1;stop-color:#24265d"
         offset="0.894069"
         id="stop188" />
      <stop
         style="stop-opacity:1;stop-color:#24265d"
         offset="1"
         id="stop190" />
    </linearGradient>
    <clipPath
       clipPathUnits="userSpaceOnUse"
       id="clipPath162">
      <path
         inkscape:connector-curvature="0"
         d="m 1360.33,3154.89 -72.19,-303.58 57.92,0 75.72,318.44 -61.45,-14.86 z"
         id="path164" />
    </clipPath>
    <linearGradient
       x1="0"
       y1="0"
       x2="1"
       y2="0"
       gradientUnits="userSpaceOnUse"
       gradientTransform="matrix(11.9962,40.6437,40.6437,-11.9962,126.788,271.401)"
       spreadMethod="pad"
       id="linearGradient166">
      <stop
         style="stop-opacity:1;stop-color:#3871c1"
         offset="0"
         id="stop168" />
      <stop
         style="stop-opacity:1;stop-color:#24265d"
         offset="0.894069"
         id="stop170" />
      <stop
         style="stop-opacity:1;stop-color:#24265d"
         offset="1"
         id="stop172" />
    </linearGradient>
    <clipPath
       clipPathUnits="userSpaceOnUse"
       id="clipPath144">
      <path
         inkscape:connector-curvature="0"
         d="m 1868.52,3175.06 c -24.59,0 -47.61,-4.89 -69.03,-14.65 l -0.25,9.55 -6.19,0 -51.41,-12.41 -72.83,-306.24 57.86,0 52.33,220.06 c 5.04,21.19 20.01,36.04 44.89,44.54 10.59,3.38 21.36,5.09 32.38,5.09 11.03,0 21.63,-2.78 31.79,-8.29 l 27.11,55.33 c -23.47,4.67 -39,7.02 -46.65,7.02 z"
         id="path146" />
    </clipPath>
    <linearGradient
       x1="0"
       y1="0"
       x2="1"
       y2="0"
       gradientUnits="userSpaceOnUse"
       gradientTransform="matrix(11.9961,40.6431,40.6431,-11.9961,166.164,259.779)"
       spreadMethod="pad"
       id="linearGradient148">
      <stop
         style="stop-opacity:1;stop-color:#3871c1"
         offset="0"
         id="stop150" />
      <stop
         style="stop-opacity:1;stop-color:#24265d"
         offset="0.894069"
         id="stop152" />
      <stop
         style="stop-opacity:1;stop-color:#24265d"
         offset="1"
         id="stop154" />
    </linearGradient>
    <clipPath
       clipPathUnits="userSpaceOnUse"
       id="clipPath126">
      <path
         inkscape:connector-curvature="0"
         d="m 1949.82,3153.11 -71.75,-301.8 57.91,0 75.29,316.62 -61.45,-14.82 z"
         id="path128" />
    </clipPath>
    <linearGradient
       x1="0"
       y1="0"
       x2="1"
       y2="0"
       gradientUnits="userSpaceOnUse"
       gradientTransform="matrix(11.9963,40.6437,40.6437,-11.9963,181.056,255.382)"
       spreadMethod="pad"
       id="linearGradient130">
      <stop
         style="stop-opacity:1;stop-color:#3871c1"
         offset="0"
         id="stop132" />
      <stop
         style="stop-opacity:1;stop-color:#24265d"
         offset="0.894069"
         id="stop134" />
      <stop
         style="stop-opacity:1;stop-color:#24265d"
         offset="1"
         id="stop136" />
    </linearGradient>
    <clipPath
       clipPathUnits="userSpaceOnUse"
       id="clipPath108">
      <path
         inkscape:connector-curvature="0"
         d="m 1665.27,3147.37 c -15.23,18.87 -40.41,28.31 -75.61,28.31 -35.2,0 -65.75,-9.55 -91.68,-28.59 -25.96,-19.11 -43.02,-45.8 -51.2,-80.15 l -31,-130.37 c -14.72,-61.93 14.82,-92.86 88.57,-92.86 35.6,0 72.13,9.94 109.54,29.88 l -9.99,48.97 c -35.85,-16.94 -65.61,-25.43 -89.35,-25.43 -13.15,0 -23.92,3.36 -32.28,10.16 -8.33,6.78 -10.48,18.66 -6.44,35.64 l 5.89,24.78 0.11,0.01 13.8,58.57 0.02,0 9.53,40 c 3.82,16.1 11.9,29.14 24.21,39.12 12.34,9.96 26.68,14.94 42.97,14.94 16.31,0 29.05,-4.14 38.11,-12.4 9.06,-8.25 11.49,-21.08 7.38,-38.48 l -9.84,-41.33 -105.28,-5.9 11.43,-53.33 140.27,8.36 21.81,91.56 c 7.93,33.51 4.28,59.71 -10.97,78.54 z"
         id="path110" />
    </clipPath>
    <linearGradient
       x1="0"
       y1="0"
       x2="1"
       y2="0"
       gradientUnits="userSpaceOnUse"
       gradientTransform="matrix(11.996,40.6428,40.6428,-11.996,144.418,266.197)"
       spreadMethod="pad"
       id="linearGradient112">
      <stop
         style="stop-opacity:1;stop-color:#3871c1"
         offset="0"
         id="stop114" />
      <stop
         style="stop-opacity:1;stop-color:#24265d"
         offset="0.894069"
         id="stop116" />
      <stop
         style="stop-opacity:1;stop-color:#24265d"
         offset="1"
         id="stop118" />
    </linearGradient>
    <clipPath
       clipPathUnits="userSpaceOnUse"
       id="clipPath90">
      <path
         inkscape:connector-curvature="0"
         d="m 577.5,3110.49 c -1.16,5.72 -2.742,12.42 -4.766,20.03 -2.015,7.64 -5.824,13.8 -11.488,18.46 -5.672,4.66 -12.422,9.34 -20.234,14 -13.668,7.53 -36.016,11.38 -66.985,12.04 -33.914,0.71 -69.347,-4.14 -71.523,-4.14 l -16.059,-45.13 c 2.633,0 41.235,5.98 72.793,4.05 46.93,-2.88 68.403,-15.04 60.348,-48.89 -0.066,0.04 -0.121,0.08 -0.172,0.12 l -13.738,-57.89 c 0.051,-0.02 0.109,-0.06 0.164,-0.09 l -28.906,-121.47 c -17.52,-2.54 -33.305,-3.84 -47.329,-3.84 -55.128,0 -77.457,21.85 -67.082,65.52 l 2.129,8.14 c 3.934,16.53 11.071,27.84 21.453,34.03 10.356,6.13 19.047,9.2 26.036,9.2 6.984,0 11.902,-0.22 14.777,-0.61 21.977,-2.68 41.187,-8.46 57.84,-17.12 l 12.961,54.13 c -21.906,14.38 -41.364,21.49 -75.324,21.49 -17.399,0 -34.09,-3.41 -50.082,-10.16 -32.739,-14.45 -54.036,-42.65 -63.997,-84.6 l -4.718,-18.94 c -18.039,-75.93 19.363,-113.87 112.207,-113.87 26.297,0 61.961,2.16 107.117,6.36 l 45.047,189.55 c 3.832,16.12 6.832,31.57 9.14,46.42 1.422,9.76 1.629,17.49 0.391,23.21 z"
         id="path92" />
    </clipPath>
    <linearGradient
       x1="0"
       y1="0"
       x2="1"
       y2="0"
       gradientUnits="userSpaceOnUse"
       gradientTransform="matrix(11.9963,40.6438,40.6438,-11.9963,42.9341,296.151)"
       spreadMethod="pad"
       id="linearGradient94">
      <stop
         style="stop-opacity:1;stop-color:#3871c1"
         offset="0"
         id="stop96" />
      <stop
         style="stop-opacity:1;stop-color:#24265d"
         offset="0.894069"
         id="stop98" />
      <stop
         style="stop-opacity:1;stop-color:#24265d"
         offset="1"
         id="stop100" />
    </linearGradient>
  </defs>
  <sodipodi:namedview
     id="base"
     pagecolor="#ffffff"
     bordercolor="#666666"
     borderopacity="1.0"
     inkscape:pageopacity="0.0"
     inkscape:pageshadow="2"
     inkscape:zoom="0.98994949"
     inkscape:cx="154.47422"
     inkscape:cy="48.774095"
     inkscape:document-units="px"
     inkscape:current-layer="layer1"
     showgrid="false"
     inkscape:window-width="515"
     inkscape:window-height="457"
     inkscape:window-x="0"
     inkscape:window-y="26"
     inkscape:window-maximized="0"
     fit-margin-top="0"
     fit-margin-left="0"
     fit-margin-right="0"
     fit-margin-bottom="0" />
  <metadata
     id="metadata3820">
    <rdf:RDF>
      <cc:Work
         rdf:about="">
        <dc:format>image/svg+xml</dc:format>
        <dc:type
           rdf:resource="http://purl.org/dc/dcmitype/StillImage" />
        <dc:title></dc:title>
      </cc:Work>
    </rdf:RDF>
  </metadata>
  <g
     inkscape:label="Livello 1"
     inkscape:groupmode="layer"
     id="layer1"
     transform="translate(-101.89928,-343.27888)">
    <path
       inkscape:connector-curvature="0"
       id="path14"
       style="fill:#7b7979;fill-opacity:1;fill-rule:nonzero;stroke:none"
       d="m 104.08128,420.74013 -1.73242,10e-4 -0.13476,-10.5725 1.59179,0 0.0454,8.07875 4.19872,-8.08125 1.62256,0 -5.59131,10.57375" />
    <path
       inkscape:connector-curvature="0"
       id="path16"
       style="fill:#7b7979;fill-opacity:1;fill-rule:nonzero;stroke:none"
       d="m 111.4431,419.54388 0.74658,-2.885 c -0.4707,-0.31125 -1.04931,-0.5075 -1.73584,-0.58875 -0.0698,-0.01 -0.19091,-0.0138 -0.3623,-0.0138 -0.17187,0 -0.38672,0.0725 -0.64161,0.21875 -0.25683,0.14625 -0.43603,0.415 -0.53759,0.80875 l -0.25732,0.99625 c -0.26857,1.0375 0.27343,1.555 1.62597,1.555 0.34278,0 0.72998,-0.0313 1.16211,-0.0913 z m -1.08155,-4.86375 c 0.9043,0 1.63282,0.20125 2.18361,0.605 0.21923,-0.84625 -0.3169,-1.26875 -1.60597,-1.26875 l 0.3584,-0.96625 c 0.84375,-0.001 1.44288,0.095 1.79834,0.28625 0.18994,0.11125 0.354,0.22 0.49219,0.33125 0.13624,0.11125 0.2295,0.25625 0.27686,0.43875 0.0459,0.18125 0.083,0.33875 0.10986,0.475 0.0283,0.13625 0.022,0.32 -0.0171,0.55125 -0.0605,0.3525 -0.13963,0.72 -0.23925,1.10375 l -1.16455,4.50125 c -1.10694,0.1 -1.98486,0.15125 -2.6294,0.1525 -2.27782,0 -3.18359,-0.90125 -2.71729,-2.70375 l 0.32472,-1.25375 c 0.2583,-0.9975 0.79003,-1.66625 1.59667,-2.00875 0.39405,-0.16125 0.80566,-0.2425 1.23291,-0.24375" />
    <path
       inkscape:connector-curvature="0"
       id="path18"
       style="fill:#7b7979;fill-opacity:1;fill-rule:nonzero;stroke:none"
       d="m 115.75214,420.73638 -1.4194,0 2.7359,-10.5725 1.41988,-0.001 -2.73638,10.57375" />
    <path
       inkscape:connector-curvature="0"
       id="path20"
       style="fill:#7b7979;fill-opacity:1;fill-rule:nonzero;stroke:none"
       d="m 123.31327,418.10388 0.55562,-2.14375 c 0.27588,-1.0675 -0.0791,-1.60125 -1.06787,-1.60125 -1.00925,0 -1.65238,0.535 -1.92825,1.6025 l -0.55513,2.145 c -0.12212,0.47375 -0.0752,0.8325 0.14163,1.07875 0.21725,0.2475 0.55075,0.37 0.997,0.37 0.44675,0 0.83737,-0.12625 1.17487,-0.37875 0.33388,-0.25125 0.5625,-0.60875 0.68213,-1.0725 z m 1.96037,-2.145 -0.51662,1.99375 c -0.21825,0.84625 -0.63863,1.545 -1.26075,2.10125 -0.622,0.55375 -1.416,0.83 -2.38425,0.83125 -0.96625,0 -1.626,-0.28 -1.97513,-0.83875 -0.35,-0.55875 -0.416,-1.255 -0.19962,-2.09125 l 0.51612,-1.99375 c 0.2475,-0.9575 0.68938,-1.69 1.32563,-2.19875 0.63575,-0.5075 1.4165,-0.7625 2.34187,-0.76375 0.92675,0 1.57663,0.26375 1.94813,0.79375 0.37362,0.5275 0.4415,1.25 0.20462,2.16625" />
    <path
       inkscape:connector-curvature="0"
       id="path22"
       style="fill:#7b7979;fill-opacity:1;fill-rule:nonzero;stroke:none"
       d="m 128.87089,413.39013 c 0.52925,-0.2325 1.09375,-0.34875 1.69813,-0.34875 0.18712,0 0.5675,0.0562 1.14262,0.16625 l -0.68362,1.31375 c -0.2465,-0.13 -0.50538,-0.19625 -0.77638,-0.19625 -0.27,0 -0.53612,0.0412 -0.79587,0.1225 -0.61325,0.20125 -0.98538,0.5525 -1.11575,1.05625 l -1.3525,5.2275 -1.41938,0 1.9585,-7.56875 1.34125,0 0.003,0.2275" />
    <path
       inkscape:connector-curvature="0"
       id="path24"
       style="fill:#7b7979;fill-opacity:1;fill-rule:nonzero;stroke:none"
       d="m 135.37627,416.52888 0.25387,-0.98125 c 0.10738,-0.415 0.0507,-0.7175 -0.1685,-0.915 -0.21975,-0.19625 -0.52975,-0.29375 -0.93012,-0.29375 -0.40038,0 -0.754,0.1175 -1.05963,0.35625 -0.30612,0.23625 -0.50825,0.545 -0.60787,0.92875 l -0.2735,1.05625 2.78575,-0.15125 z m -2.3345,3.1125 c 0.582,0 1.31637,-0.2025 2.20112,-0.60625 l 0.2285,1.16375 c -0.92287,0.47375 -1.82175,0.71 -2.69575,0.71 -1.80912,10e-4 -2.52437,-0.73375 -2.14412,-2.20375 l 0.80137,-3.09625 c 0.21088,-0.815 0.63763,-1.45 1.28125,-1.90375 0.6415,-0.45375 1.395,-0.68 2.25775,-0.68 0.86325,-10e-4 1.4795,0.22375 1.84813,0.67125 0.36775,0.4475 0.44825,1.06875 0.24225,1.865 l -0.563,2.175 -4.24075,0.22875 -0.15288,0.5875 c -0.1035,0.40375 -0.0546,0.68625 0.1495,0.8475 0.20163,0.16125 0.46438,0.24125 0.78663,0.24125" />
    <path
       inkscape:connector-curvature="0"
       id="path26"
       style="fill:#7b7979;fill-opacity:1;fill-rule:nonzero;stroke:none"
       d="m 146.14377,419.52888 0.74662,-2.885 c -0.47075,-0.31 -1.04937,-0.5075 -1.73587,-0.5875 -0.0694,-0.01 -0.19088,-0.0138 -0.36175,-0.0138 -0.17188,0 -0.38675,0.0713 -0.64213,0.2175 -0.25637,0.1475 -0.436,0.415 -0.53712,0.80875 l -0.25788,0.99625 c -0.268,1.0375 0.274,1.55625 1.626,1.555 0.34325,0 0.73,-0.03 1.16213,-0.0913 z m -1.081,-4.8625 c 0.90425,0 1.63225,0.20125 2.1835,0.60375 0.21925,-0.84625 -0.31738,-1.26875 -1.60638,-1.2675 l 0.35888,-0.9675 c 0.84375,0 1.44287,0.0962 1.79837,0.28625 0.18938,0.11125 0.354,0.22125 0.49163,0.3325 0.13675,0.11125 0.2295,0.25625 0.27687,0.43875 0.0459,0.18 0.083,0.33875 0.11038,0.47375 0.0279,0.13625 0.022,0.32125 -0.0176,0.55125 -0.06,0.3525 -0.13963,0.72125 -0.23925,1.10375 l -1.164,4.50125 c -1.1075,0.1 -1.98488,0.1525 -2.62938,0.1525 -2.27787,10e-4 -3.18362,-0.90125 -2.71787,-2.7025 l 0.32525,-1.255 c 0.25775,-0.99625 0.7895,-1.66625 1.59625,-2.0075 0.3945,-0.16125 0.80612,-0.24375 1.23337,-0.24375" />
    <path
       inkscape:connector-curvature="0"
       id="path28"
       style="fill:#7b7979;fill-opacity:1;fill-rule:nonzero;stroke:none"
       d="m 152.07202,413.38013 c 0.52875,-0.23125 1.09375,-0.3475 1.69775,-0.3475 0.1865,0 0.56787,0.055 1.14262,0.16625 l -0.68362,1.31375 c -0.24663,-0.13125 -0.50538,-0.1975 -0.77638,-0.1975 -0.2695,10e-4 -0.53562,0.0412 -0.79587,0.1225 -0.61338,0.20125 -0.98488,0.5525 -1.11575,1.05625 l -1.3525,5.2275 -1.42,0 1.959,-7.5675 1.34137,0 0.003,0.22625" />
    <path
       inkscape:connector-curvature="0"
       id="path30"
       style="fill:#7b7979;fill-opacity:1;fill-rule:nonzero;stroke:none"
       d="m 156.58227,419.82763 -0.70313,1.0875 c -1.38325,-0.11875 -1.90187,-0.85 -1.55562,-2.18875 l 2.22012,-8.58 1.43563,0 -0.77738,3.005 1.6235,-0.001 -0.71087,1.29875 -1.249,10e-4 -1.1065,4.275 c -0.164,0.635 0.11037,1.0025 0.82325,1.1025" />
    <path
       inkscape:connector-curvature="0"
       id="path32"
       style="fill:#7b7979;fill-opacity:1;fill-rule:nonzero;stroke:none"
       d="m 162.58464,410.74013 c -0.0507,0.1975 -0.17475,0.3725 -0.371,0.52875 -0.19587,0.15625 -0.395,0.23375 -0.59912,0.23375 -0.20263,10e-4 -0.36425,-0.0775 -0.48488,-0.2325 -0.12112,-0.15625 -0.15575,-0.3325 -0.1055,-0.53 0.0513,-0.19625 0.17725,-0.37 0.3775,-0.52 0.20013,-0.15125 0.40175,-0.22625 0.6045,-0.2275 0.2035,0 0.36375,0.0762 0.4795,0.22625 0.11713,0.15125 0.15038,0.325 0.099,0.52125 z m -2.67475,9.9775 -1.42087,0 1.9585,-7.5675 1.42087,-10e-4 -1.9585,7.56875" />
    <path
       inkscape:connector-curvature="0"
       id="path34"
       style="fill:#7b7979;fill-opacity:1;fill-rule:nonzero;stroke:none"
       d="m 167.11689,417.52763 0.43313,-1.6775 c 0.126,-0.4825 0.0879,-0.8525 -0.11038,-1.10875 -0.19912,-0.2575 -0.54337,-0.385 -1.03212,-0.385 -0.48938,0 -0.898,0.13625 -1.22813,0.4075 -0.3305,0.2725 -0.55762,0.645 -0.67962,1.11875 l -0.53563,2.07 c -0.13087,0.5025 -0.11137,0.90125 0.0571,1.1925 0.16938,0.29125 0.50288,0.4375 1.00188,0.4375 1.04062,-10e-4 1.73837,-0.685 2.09375,-2.055 z m -2.41162,6.36 -0.0649,-1.07375 c 0.76175,-0.09 1.24512,-0.52875 1.44775,-1.31375 l 0.309,-1.1925 c -0.36175,0.3925 -0.96675,0.58875 -1.81488,0.58875 -0.84712,0 -1.46287,-0.24125 -1.84862,-0.72375 -0.38338,-0.48375 -0.4565,-1.18875 -0.21638,-2.115 l 0.58263,-2.25 c 0.2295,-0.88625 0.67425,-1.57375 1.33637,-2.0625 0.66213,-0.4875 1.41113,-0.73375 2.2485,-0.73375 0.83738,0 1.3355,0.1825 1.49025,0.54375 l 0.294,-0.40875 1.20113,0 -2.209,8.535 c -0.3515,1.35875 -1.271,2.09375 -2.75588,2.20625" />
    <path
       inkscape:connector-curvature="0"
       id="path36"
       style="fill:#7b7979;fill-opacity:1;fill-rule:nonzero;stroke:none"
       d="m 173.60027,410.73513 c -0.0507,0.1975 -0.17475,0.37375 -0.371,0.53 -0.19588,0.15625 -0.395,0.23375 -0.59913,0.23375 -0.20262,0 -0.36425,-0.0775 -0.48487,-0.23375 -0.12113,-0.15625 -0.15575,-0.33125 -0.1055,-0.52875 0.0512,-0.19625 0.17725,-0.37125 0.3775,-0.52125 0.20012,-0.15125 0.40175,-0.22625 0.6045,-0.22625 0.2035,0 0.36375,0.075 0.4795,0.22625 0.11712,0.15 0.15037,0.32375 0.099,0.52 z m -2.67475,9.97875 -1.42088,0 1.9585,-7.56875 1.42088,0 -1.9585,7.56875" />
    <path
       inkscape:connector-curvature="0"
       id="path38"
       style="fill:#7b7979;fill-opacity:1;fill-rule:nonzero;stroke:none"
       d="m 177.74089,419.51638 0.74613,-2.885 c -0.47013,-0.31125 -1.04875,-0.5075 -1.73575,-0.58875 -0.0694,-0.009 -0.191,-0.0137 -0.36188,-0.0137 -0.17187,0 -0.38725,0.0725 -0.64212,0.21875 -0.25638,0.14625 -0.4355,0.415 -0.53713,0.80875 l -0.25725,0.99625 c -0.26912,1.0375 0.27288,1.55625 1.626,1.555 0.34275,0 0.7295,-0.0313 1.162,-0.0912 z m -1.082,-4.8625 c 0.90488,-0.001 1.63288,0.20125 2.18413,0.60375 0.21925,-0.84625 -0.31738,-1.26875 -1.6065,-1.26875 l 0.35887,-0.96625 c 0.84338,0 1.44288,0.095 1.79788,0.28625 0.19,0.11 0.354,0.22 0.49225,0.33125 0.13662,0.11125 0.2295,0.2575 0.27725,0.44 0.0455,0.17875 0.0831,0.3375 0.10937,0.47375 0.0284,0.135 0.022,0.32 -0.0165,0.55125 -0.0606,0.3525 -0.14012,0.72 -0.23925,1.10375 l -1.16512,4.5 c -1.10688,0.10125 -1.98488,0.15375 -2.62938,0.15375 -2.27787,0 -3.18362,-0.90125 -2.71675,-2.7025 l 0.32425,-1.255 c 0.25825,-0.9975 0.79,-1.66625 1.59713,-2.00875 0.394,-0.16125 0.80512,-0.2425 1.23237,-0.2425" />
    <path
       inkscape:connector-curvature="0"
       id="path40"
       style="fill:#7b7979;fill-opacity:1;fill-rule:nonzero;stroke:none"
       d="m 183.71114,413.38263 c 0.5205,-0.2425 1.05713,-0.3625 1.60788,-0.36375 0.55187,0 1.03225,0.0913 1.44337,0.27125 0.78175,0.3925 1.03613,1.1225 0.75975,2.18875 l -1.3525,5.2275 -1.42087,0 1.271,-4.9075 c 0.124,-0.485 0.0694,-0.85125 -0.167,-1.10375 -0.23638,-0.25125 -0.57763,-0.3775 -1.02588,-0.3775 -0.44675,10e-4 -0.93012,0.1175 -1.44775,0.34875 l -1.564,6.0425 -1.40325,0 1.9585,-7.56875 1.29488,0 0.0459,0.2425" />
    <path
       inkscape:connector-curvature="0"
       id="path42"
       style="fill:#7b7979;fill-opacity:1;fill-rule:nonzero;stroke:none"
       d="m 193.52714,418.07638 0.55513,-2.145 c 0.27587,-1.0675 -0.0786,-1.60125 -1.06738,-1.60125 -1.00975,10e-4 -1.65237,0.535 -1.92825,1.6025 l -0.55512,2.145 c -0.12263,0.4725 -0.0753,0.8325 0.14162,1.07875 0.21725,0.2475 0.55025,0.37 0.997,0.37 0.44675,0 0.83738,-0.12625 1.17438,-0.37875 0.33437,-0.25125 0.563,-0.60875 0.68262,-1.07125 z m 1.95988,-2.14625 -0.51613,1.99375 c -0.21875,0.84625 -0.63912,1.545 -1.26125,2.1 -0.6215,0.555 -1.416,0.83125 -2.38375,0.8325 -0.96675,0 -1.626,-0.28 -1.97512,-0.83875 -0.35,-0.55875 -0.4165,-1.255 -0.20013,-2.09125 l 0.51663,-1.99375 c 0.2475,-0.9575 0.68937,-1.69 1.32512,-2.19875 0.63625,-0.5075 1.417,-0.76375 2.34225,-0.76375 0.92638,0 1.57675,0.26375 1.94825,0.7925 0.37363,0.52875 0.4415,1.2525 0.20413,2.1675" />
    <path
       inkscape:connector-curvature="0"
       id="path44"
       style="fill:#7b7979;fill-opacity:1;fill-rule:nonzero;stroke:none"
       d="m 205.58464,417.84388 0.50887,-1.9625 c 0.13275,-0.51375 0.1015,-0.9 -0.0919,-1.15625 -0.19325,-0.2575 -0.52438,-0.385 -0.99313,-0.385 -0.46725,0 -0.8745,0.12625 -1.22075,0.3775 -0.34512,0.2525 -0.58437,0.615 -0.71825,1.08875 l -0.5625,2.175 c -0.2685,1.0375 0.11725,1.55625 1.15725,1.55625 0.98875,-10e-4 1.62888,-0.565 1.92038,-1.69375 z m -4.516,5.69625 -1.50587,0.3325 2.77924,-10.74 1.35738,0 -0.0541,0.33125 c 0.44188,-0.30125 0.99025,-0.4525 1.6455,-0.4525 0.96775,-10e-4 1.63275,0.27125 1.997,0.81375 0.36388,0.54375 0.43313,1.24875 0.21,2.11625 l -0.54337,2.0975 c -0.23788,0.9175 -0.68413,1.62 -1.34138,2.1075 -0.65825,0.49 -1.42287,0.73375 -2.29687,0.73375 -0.63325,0 -1.11675,-0.14 -1.45062,-0.4225 l -0.79688,3.0825" />
    <path
       inkscape:connector-curvature="0"
       id="path46"
       style="fill:#7b7979;fill-opacity:1;fill-rule:nonzero;stroke:none"
       d="m 212.65751,416.49763 0.25438,-0.9825 c 0.10687,-0.41375 0.0503,-0.7175 -0.169,-0.91375 -0.21975,-0.19625 -0.52925,-0.29375 -0.92963,-0.29375 -0.4005,0 -0.754,0.1175 -1.06012,0.35625 -0.30613,0.23625 -0.50825,0.545 -0.60738,0.9275 l -0.274,1.0575 2.78575,-0.15125 z m -2.3345,3.1125 c 0.5825,0 1.31688,-0.20375 2.20163,-0.60625 l 0.228,1.16375 c -0.92288,0.4725 -1.82175,0.71 -2.69575,0.71 -1.80913,0 -2.52438,-0.73375 -2.14413,-2.20375 l 0.80138,-3.09625 c 0.21137,-0.81625 0.63762,-1.45 1.28125,-1.90375 0.642,-0.45375 1.3955,-0.68 2.25825,-0.68125 0.86275,0 1.4795,0.22375 1.84812,0.67125 0.36775,0.4475 0.44775,1.07 0.24175,1.86625 l -0.5625,2.17375 -4.24125,0.22875 -0.15237,0.58875 c -0.104,0.40375 -0.0546,0.685 0.149,0.84625 0.20212,0.1625 0.46437,0.2425 0.78662,0.2425" />
    <path
       inkscape:connector-curvature="0"
       id="path48"
       style="fill:#7b7979;fill-opacity:1;fill-rule:nonzero;stroke:none"
       d="m 217.87039,413.35263 c 0.52875,-0.23125 1.09375,-0.34625 1.69775,-0.3475 0.187,0 0.56787,0.055 1.1425,0.16625 l -0.6835,1.315 c -0.24663,-0.1325 -0.50538,-0.1975 -0.77638,-0.1975 -0.27012,0 -0.53612,0.0412 -0.796,0.12125 -0.61325,0.20125 -0.98475,0.55375 -1.11562,1.0575 l -1.35263,5.22625 -1.41937,0.001 1.9585,-7.56875 1.34125,0 0.004,0.22625" />
    <path
       inkscape:connector-curvature="0"
       id="path50"
       style="fill:#7b7979;fill-opacity:1;fill-rule:nonzero;stroke:none"
       d="m 224.68964,418.77263 1.43212,-0.10625 c -0.0493,0.27125 0.0366,0.50125 0.25788,0.6875 0.22362,0.18625 0.5375,0.27875 0.9425,0.27875 0.40625,0 0.76,-0.0937 1.0625,-0.28 0.305,-0.18625 0.495,-0.43125 0.5725,-0.7325 0.0787,-0.3025 0.0125,-0.555 -0.19375,-0.755 -0.20875,-0.2025 -0.4875,-0.36 -0.8375,-0.47625 -0.35,-0.115 -0.69875,-0.2425 -1.04625,-0.38375 -0.34863,-0.14125 -0.62938,-0.36375 -0.84275,-0.66375 -0.27,-0.36375 -0.33838,-0.80125 -0.20563,-1.31375 0.13338,-0.515 0.46688,-0.99125 1.0005,-1.42875 0.53663,-0.43875 1.27663,-0.6575 2.22288,-0.6575 0.3325,0 0.635,0.0375 0.90625,0.1125 0.2725,0.0763 0.46125,0.1475 0.5675,0.21875 l 0.16,0.105 -0.74125,1.24 c -0.22875,-0.2425 -0.60375,-0.36375 -1.12375,-0.3625 -0.52,0 -0.88125,0.0813 -1.08375,0.24125 -0.20375,0.1625 -0.3325,0.3475 -0.3875,0.56 -0.07,0.27125 0.0275,0.48875 0.2925,0.64875 0.26625,0.16 0.57375,0.305 0.925,0.43 0.35375,0.12625 0.6975,0.27375 1.0325,0.445 0.33625,0.17125 0.59,0.4325 0.76375,0.785 0.175,0.3525 0.1875,0.81375 0.04,1.38375 -0.14625,0.5675 -0.51375,1.07125 -1.1,1.51 -0.58625,0.4375 -1.33625,0.6575 -2.245,0.6575 -0.91075,0 -1.5675,-0.205 -1.97038,-0.6175 -0.40275,-0.41375 -0.53662,-0.9225 -0.40087,-1.52625" />
    <path
       inkscape:connector-curvature="0"
       id="path52"
       style="fill:#7b7979;fill-opacity:1;fill-rule:nonzero;stroke:none"
       d="m 236.66839,418.05763 0.55625,-2.14375 c 0.275,-1.06875 -0.0787,-1.6025 -1.0675,-1.60125 -1.01,0 -1.6525,0.535 -1.92875,1.60125 l -0.555,2.14625 c -0.1225,0.4725 -0.075,0.8325 0.14125,1.07875 0.2175,0.24625 0.55125,0.36875 0.9975,0.36875 0.4475,0 0.8375,-0.125 1.175,-0.3775 0.33375,-0.25125 0.5625,-0.60875 0.68125,-1.0725 z m 1.96125,-2.145 -0.51625,1.99375 c -0.21875,0.845 -0.64,1.545 -1.26125,2.1 -0.6225,0.555 -1.41625,0.83125 -2.38375,0.8325 -0.9675,0 -1.62625,-0.28 -1.975,-0.83875 -0.35125,-0.55875 -0.41625,-1.255 -0.20125,-2.09125 l 0.5175,-1.99375 c 0.2475,-0.9575 0.68875,-1.69 1.325,-2.19875 0.63625,-0.5075 1.41625,-0.76375 2.3425,-0.76375 0.92625,0 1.57625,0.26375 1.9475,0.7925 0.37375,0.52875 0.44125,1.25125 0.205,2.1675" />
    <path
       inkscape:connector-curvature="0"
       id="path54"
       style="fill:#7b7979;fill-opacity:1;fill-rule:nonzero;stroke:none"
       d="m 240.60839,420.68513 -1.42,0 2.73625,-10.5725 1.42,-0.001 -2.73625,10.57375" />
    <path
       inkscape:connector-curvature="0"
       id="path56"
       style="fill:#7b7979;fill-opacity:1;fill-rule:nonzero;stroke:none"
       d="m 248.23839,420.68138 -1.34125,0.001 0.0375,-0.3325 c -0.50125,0.3325 -1.04375,0.49875 -1.62625,0.5 -1.955,0 -2.695,-0.92125 -2.2175,-2.765 l 1.28625,-4.97 1.42,0 -1.255,4.84875 c -0.26875,1.0375 0.1025,1.55625 1.11,1.55625 0.97875,-10e-4 1.60625,-0.535 1.8825,-1.6025 l 1.2425,-4.80375 1.42,-10e-4 -1.95875,7.56875" />
    <path
       inkscape:connector-curvature="0"
       id="path58"
       style="fill:#7b7979;fill-opacity:1;fill-rule:nonzero;stroke:none"
       d="m 255.77464,420.67888 -5.72625,0.001 0.33125,-1.28375 4.91375,-5.00125 -3.47875,10e-4 0.3325,-1.285 5.3675,-0.001 -0.325,1.25375 -4.9375,5.0325 3.85375,-0.001 -0.33125,1.28375" />
    <path
       inkscape:connector-curvature="0"
       id="path60"
       style="fill:#7b7979;fill-opacity:1;fill-rule:nonzero;stroke:none"
       d="m 261.71089,410.69888 c -0.0513,0.1975 -0.175,0.37375 -0.37125,0.53 -0.195,0.15625 -0.395,0.23375 -0.59875,0.23375 -0.2025,0 -0.365,-0.0775 -0.485,-0.23375 -0.12125,-0.15625 -0.15625,-0.3325 -0.105,-0.53 0.0513,-0.195 0.17625,-0.36875 0.37625,-0.52 0.20125,-0.15 0.4025,-0.22625 0.605,-0.22625 0.20375,0 0.36375,0.0763 0.48,0.225 0.11625,0.15125 0.15,0.325 0.0987,0.52125 z m -2.675,9.9775 -1.42125,0.001 1.95875,-7.56875 1.42125,0 -1.95875,7.5675" />
    <path
       inkscape:connector-curvature="0"
       id="path62"
       style="fill:#7b7979;fill-opacity:1;fill-rule:nonzero;stroke:none"
       d="m 266.68964,418.04638 0.555,-2.145 c 0.27625,-1.0675 -0.0788,-1.60125 -1.0675,-1.60125 -1.00875,0 -1.65125,0.535 -1.9275,1.6025 l -0.555,2.145 c -0.1225,0.47375 -0.0762,0.8325 0.14125,1.07875 0.2175,0.2475 0.55,0.37 0.9975,0.37 0.44625,-10e-4 0.8375,-0.12625 1.17375,-0.37875 0.335,-0.25 0.5625,-0.60875 0.6825,-1.07125 z m 1.96,-2.145 -0.51625,1.9925 c -0.2175,0.84625 -0.63875,1.545 -1.26,2.1 -0.6225,0.555 -1.41625,0.83125 -2.385,0.8325 -0.96625,0 -1.625,-0.28 -1.975,-0.83875 -0.35,-0.55875 -0.41625,-1.25375 -0.2,-2.09125 l 0.51625,-1.99375 c 0.2475,-0.9575 0.69,-1.69 1.32625,-2.19875 0.635,-0.5075 1.41625,-0.7625 2.34125,-0.7625 0.92625,-10e-4 1.57625,0.2625 1.94875,0.7925 0.37375,0.5275 0.44125,1.25 0.20375,2.1675" />
    <path
       inkscape:connector-curvature="0"
       id="path64"
       style="fill:#7b7979;fill-opacity:1;fill-rule:nonzero;stroke:none"
       d="m 272.29089,413.34638 c 0.52,-0.2425 1.05625,-0.3625 1.6075,-0.3625 0.55125,-10e-4 1.0325,0.09 1.4425,0.27 0.7825,0.3925 1.0375,1.1225 0.76,2.19 l -1.3525,5.22625 -1.42,0.001 1.27,-4.90875 c 0.125,-0.48375 0.07,-0.85125 -0.16625,-1.10375 -0.23625,-0.25125 -0.57875,-0.37625 -1.02625,-0.37625 -0.44625,0 -0.93,0.115 -1.4475,0.3475 l -1.56375,6.0425 -1.40375,0 1.95875,-7.56875 1.295,0 0.0462,0.2425" />
    <path
       inkscape:connector-curvature="0"
       id="path66"
       style="fill:#7b7979;fill-opacity:1;fill-rule:nonzero;stroke:none"
       d="m 281.15214,410.69138 c -0.05,0.1975 -0.17375,0.3725 -0.37125,0.52875 -0.195,0.15625 -0.39375,0.235 -0.59875,0.235 -0.2025,0 -0.36375,-0.0788 -0.485,-0.23375 -0.12,-0.15625 -0.155,-0.3325 -0.105,-0.53 0.0513,-0.19625 0.1775,-0.37 0.3775,-0.52 0.2,-0.15125 0.40125,-0.22625 0.60375,-0.22625 0.205,0 0.36375,0.075 0.48,0.225 0.1175,0.15 0.15,0.325 0.0987,0.52125 z m -2.67375,9.9775 -1.42125,0 1.95875,-7.5675 1.42125,-0.001 -1.95875,7.56875" />
    <path
       inkscape:connector-curvature="0"
       id="path68"
       style="fill:#7b7979;fill-opacity:1;fill-rule:nonzero;stroke:none"
       d="m 291.27839,414.66888 c -0.3975,-0.2325 -0.81125,-0.34875 -1.24375,-0.3475 -0.43125,0 -0.83875,0.115 -1.22125,0.3475 -0.3825,0.2325 -0.645,0.625 -0.78875,1.17875 l -0.6525,2.5225 c -0.13375,0.5125 0.0675,0.86625 0.6,1.05625 0.28625,0.1 0.6025,0.15125 0.9525,0.15125 0.3475,0 0.71875,-0.04 1.115,-0.1225 l 1.23875,-4.78625 z m -2.66375,-1.405 c 0.5625,-0.2025 1.12375,-0.3025 1.68625,-0.3025 0.56125,-0.001 1.00875,0.0987 1.34125,0.30125 l 0.82125,-3.17125 1.405,0 -2.73625,10.5725 c -0.92625,0.12 -1.77,0.18125 -2.52875,0.18125 -0.76,0 -1.40625,-0.15 -1.9425,-0.45125 -0.7075,-0.40375 -0.9325,-1.1025 -0.6725,-2.1 l 0.7375,-2.855 c 0.27375,-1.05625 0.90375,-1.7825 1.88875,-2.175" />
    <path
       inkscape:connector-curvature="0"
       id="path70"
       style="fill:#7b7979;fill-opacity:1;fill-rule:nonzero;stroke:none"
       d="m 297.06714,410.68513 c -0.0512,0.1975 -0.175,0.3725 -0.37125,0.52875 -0.195,0.15625 -0.395,0.23375 -0.59875,0.23375 -0.2025,0 -0.365,-0.0775 -0.485,-0.23375 -0.12125,-0.155 -0.15625,-0.33125 -0.105,-0.52875 0.0513,-0.19625 0.17625,-0.37 0.3775,-0.52125 0.2,-0.15 0.40125,-0.22625 0.60375,-0.22625 0.20375,0 0.36375,0.0762 0.48,0.22625 0.11625,0.15 0.15,0.325 0.0987,0.52125 z m -2.675,9.9775 -1.42125,0 1.95875,-7.5675 1.42125,-10e-4 -1.95875,7.56875" />
    <path
       inkscape:connector-curvature="0"
       id="path72"
       style="fill:#7b7979;fill-opacity:1;fill-rule:nonzero;stroke:none"
       d="m 305.84464,417.87888 0.52,-2.01 c 0.18375,-0.82625 -0.045,-1.32875 -0.685,-1.51 -0.145,-0.04 -0.3025,-0.06 -0.46875,-0.06 -0.165,10e-4 -0.32375,0.0213 -0.475,0.0613 -0.15125,0.04 -0.32875,0.11625 -0.535,0.2275 -0.44125,0.22 -0.7575,0.69375 -0.945,1.41875 l -0.52375,2.02375 c -0.1225,0.47375 -0.085,0.83625 0.11,1.0875 0.19375,0.25125 0.53,0.37875 1.00875,0.3775 1.05125,0 1.71625,-0.53875 1.99375,-1.61625 z m -0.135,5.95 -1.31875,-0.33125 0.80125,-3.09625 c -0.43875,0.2925 -1.05,0.4375 -1.83,0.43875 -0.78,0 -1.3725,-0.24375 -1.775,-0.7325 -0.405,-0.4875 -0.48875,-1.19 -0.25,-2.1075 l 0.53875,-2.08375 c 0.22375,-0.865 0.65875,-1.57375 1.30625,-2.1225 0.64625,-0.54875 1.4525,-0.82375 2.42125,-0.82375 0.56125,0 1.0275,0.16625 1.39875,0.4975 l 0.14625,-0.37875 1.34125,0 -2.78,10.74" />
    <path
       inkscape:connector-curvature="0"
       id="path74"
       style="fill:#7b7979;fill-opacity:1;fill-rule:nonzero;stroke:none"
       d="m 313.75464,420.65513 -1.34125,0 0.0375,-0.3325 c -0.50125,0.3325 -1.04375,0.49875 -1.62625,0.5 -1.955,0 -2.695,-0.92 -2.2175,-2.765 l 1.28625,-4.96875 1.42,0 -1.255,4.84875 c -0.26875,1.0375 0.1025,1.555 1.11125,1.555 0.9775,0 1.605,-0.535 1.88125,-1.60125 l 1.24375,-4.805 1.41875,0 -1.95875,7.56875" />
    <path
       inkscape:connector-curvature="0"
       id="path76"
       style="fill:#7b7979;fill-opacity:1;fill-rule:nonzero;stroke:none"
       d="m 319.82089,419.45888 0.74625,-2.885 c -0.47,-0.31125 -1.04875,-0.5075 -1.73625,-0.58875 -0.0687,-0.01 -0.19,-0.015 -0.36125,-0.015 -0.1725,0 -0.3875,0.0738 -0.6425,0.22 -0.25625,0.14625 -0.435,0.41375 -0.53625,0.8075 l -0.25875,0.99625 c -0.2675,1.0375 0.27375,1.55625 1.62625,1.55625 0.34375,-0.001 0.73,-0.0313 1.1625,-0.0913 z m -1.08125,-4.86375 c 0.90375,0 1.6325,0.20125 2.18375,0.60375 0.21875,-0.845 -0.3175,-1.26875 -1.60625,-1.2675 l 0.35875,-0.9675 c 0.84375,0 1.4425,0.0962 1.7975,0.28625 0.19,0.11125 0.35375,0.22 0.4925,0.33125 0.13625,0.11125 0.22875,0.2575 0.27625,0.44 0.0462,0.18 0.0838,0.33875 0.11,0.47375 0.0288,0.13625 0.0225,0.32125 -0.0162,0.5525 -0.0613,0.35125 -0.14,0.72 -0.24,1.1025 l -1.16375,4.50125 c -1.1075,0.10125 -1.985,0.1525 -2.63,0.1525 -2.2775,0.001 -3.18375,-0.9 -2.7175,-2.7025 l 0.325,-1.25375 c 0.25875,-0.9975 0.79,-1.66625 1.59625,-2.01 0.395,-0.16125 0.80625,-0.2425 1.23375,-0.2425" />
    <path
       inkscape:connector-curvature="0"
       id="path78"
       style="fill:#7b7979;fill-opacity:1;fill-rule:nonzero;stroke:none"
       d="m 324.12964,420.65013 -1.42,0.001 2.73625,-10.57375 1.42,0 -2.73625,10.5725" />
    <path
       inkscape:connector-curvature="0"
       id="path80"
       style="fill:#7b7979;fill-opacity:1;fill-rule:nonzero;stroke:none"
       d="m 330.73714,410.67013 c -0.05,0.1975 -0.17375,0.37375 -0.37125,0.53 -0.195,0.15625 -0.39375,0.23375 -0.59875,0.23375 -0.2025,0.001 -0.36375,-0.0775 -0.485,-0.2325 -0.12,-0.15625 -0.155,-0.3325 -0.105,-0.53 0.0512,-0.19625 0.1775,-0.37 0.3775,-0.52125 0.2,-0.15 0.40125,-0.225 0.60375,-0.22625 0.205,0 0.36375,0.0763 0.48,0.22625 0.1175,0.15 0.15,0.325 0.0987,0.52 z m -2.67375,9.97875 -1.42125,0 1.95875,-7.5675 1.42125,-0.001 -1.95875,7.56875" />
    <path
       inkscape:connector-curvature="0"
       id="path82"
       style="fill:#7b7979;fill-opacity:1;fill-rule:nonzero;stroke:none"
       d="m 332.86464,419.75638 -0.7025,1.08625 c -1.3825,-0.12 -1.9025,-0.85 -1.55625,-2.18875 l 2.22125,-8.57875 1.43625,-10e-4 -0.77875,3.005 1.6225,0 -0.71,1.2975 -1.24875,0.001 -1.10625,4.27625 c -0.165,0.63375 0.11,1.00125 0.8225,1.1025" />
    <path
       inkscape:connector-curvature="0"
       id="path84"
       style="fill:#7b7979;fill-opacity:1;fill-rule:nonzero;stroke:none"
       d="m 340.26714,412.48763 -0.9825,0 -0.5875,-1.1025 c -0.0837,-0.16125 -0.1125,-0.28625 -0.09,-0.3775 0.0787,-0.3025 0.255,-0.50375 0.53,-0.60375 0.0812,-0.0313 0.16375,-0.0463 0.24625,-0.0463 0.33375,0 0.5225,0.15125 0.57,0.45375 l 0.31375,1.67625 z m -0.64625,6.9625 0.74625,-2.885 c -0.47125,-0.31125 -1.055,-0.5075 -1.75125,-0.58875 -0.0613,-0.009 -0.175,-0.0138 -0.34625,-0.0138 -0.1725,0 -0.38625,0.0725 -0.6425,0.21875 -0.25625,0.14625 -0.43625,0.415 -0.5375,0.80875 l -0.2575,0.99625 c -0.26875,1.0375 0.27375,1.555 1.62625,1.555 0.3425,0 0.73,-0.0313 1.1625,-0.0913 z m -1.08125,-4.8625 c 0.90375,-10e-4 1.6325,0.20125 2.18375,0.60375 0.2175,-0.84625 -0.3175,-1.26875 -1.6075,-1.2675 l 0.36,-0.9675 c 0.8425,-0.001 1.4425,0.095 1.7975,0.28625 0.19,0.11 0.35375,0.22 0.4925,0.33125 0.13625,0.11125 0.22875,0.2575 0.27625,0.43875 0.0462,0.18125 0.0837,0.33875 0.11125,0.475 0.0275,0.13625 0.0213,0.32 -0.0188,0.55125 -0.06,0.3525 -0.13875,0.72 -0.23875,1.1025 l -1.165,4.50125 c -1.10625,0.10125 -1.9825,0.15375 -2.62875,0.15375 -2.2775,0 -3.18375,-0.90125 -2.7175,-2.7025 l 0.325,-1.255 c 0.2575,-0.99625 0.79,-1.66625 1.59625,-2.00875 0.39625,-0.16125 0.80625,-0.2425 1.23375,-0.2425" />
    <g
       id="g86"
       transform="matrix(0.125,0,0,-0.125,101.89964,756.36763)">
      <g
         clip-path="url(#clipPath90)"
         id="g88">
        <path
           inkscape:connector-curvature="0"
           id="path102"
           style="fill:url(#linearGradient94);fill-opacity:1;fill-rule:nonzero;stroke:none"
           d="m 577.5,3110.49 c -1.16,5.72 -2.742,12.42 -4.766,20.03 -2.015,7.64 -5.824,13.8 -11.488,18.46 -5.672,4.66 -12.422,9.34 -20.234,14 -13.668,7.53 -36.016,11.38 -66.985,12.04 -33.914,0.71 -69.347,-4.14 -71.523,-4.14 l -16.059,-45.13 c 2.633,0 41.235,5.98 72.793,4.05 46.93,-2.88 68.403,-15.04 60.348,-48.89 -0.066,0.04 -0.121,0.08 -0.172,0.12 l -13.738,-57.89 c 0.051,-0.02 0.109,-0.06 0.164,-0.09 l -28.906,-121.47 c -17.52,-2.54 -33.305,-3.84 -47.329,-3.84 -55.128,0 -77.457,21.85 -67.082,65.52 l 2.129,8.14 c 3.934,16.53 11.071,27.84 21.453,34.03 10.356,6.13 19.047,9.2 26.036,9.2 6.984,0 11.902,-0.22 14.777,-0.61 21.977,-2.68 41.187,-8.46 57.84,-17.12 l 12.961,54.13 c -21.906,14.38 -41.364,21.49 -75.324,21.49 -17.399,0 -34.09,-3.41 -50.082,-10.16 -32.739,-14.45 -54.036,-42.65 -63.997,-84.6 l -4.718,-18.94 c -18.039,-75.93 19.363,-113.87 112.207,-113.87 26.297,0 61.961,2.16 107.117,6.36 l 45.047,189.55 c 3.832,16.12 6.832,31.57 9.14,46.42 1.422,9.76 1.629,17.49 0.391,23.21" />
      </g>
    </g>
    <g
       id="g104"
       transform="matrix(0.125,0,0,-0.125,101.89964,756.36763)">
      <g
         clip-path="url(#clipPath108)"
         id="g106">
        <path
           inkscape:connector-curvature="0"
           id="path120"
           style="fill:url(#linearGradient112);fill-opacity:1;fill-rule:nonzero;stroke:none"
           d="m 1665.27,3147.37 c -15.23,18.87 -40.41,28.31 -75.61,28.31 -35.2,0 -65.75,-9.55 -91.68,-28.59 -25.96,-19.11 -43.02,-45.8 -51.2,-80.15 l -31,-130.37 c -14.72,-61.93 14.82,-92.86 88.57,-92.86 35.6,0 72.13,9.94 109.54,29.88 l -9.99,48.97 c -35.85,-16.94 -65.61,-25.43 -89.35,-25.43 -13.15,0 -23.92,3.36 -32.28,10.16 -8.33,6.78 -10.48,18.66 -6.44,35.64 l 5.89,24.78 0.11,0.01 13.8,58.57 0.02,0 9.53,40 c 3.82,16.1 11.9,29.14 24.21,39.12 12.34,9.96 26.68,14.94 42.97,14.94 16.31,0 29.05,-4.14 38.11,-12.4 9.06,-8.25 11.49,-21.08 7.38,-38.48 l -9.84,-41.33 -105.28,-5.9 11.43,-53.33 140.27,8.36 21.81,91.56 c 7.93,33.51 4.28,59.71 -10.97,78.54" />
      </g>
    </g>
    <g
       id="g122"
       transform="matrix(0.125,0,0,-0.125,101.89964,756.36763)">
      <g
         clip-path="url(#clipPath126)"
         id="g124">
        <path
           inkscape:connector-curvature="0"
           id="path138"
           style="fill:url(#linearGradient130);fill-opacity:1;fill-rule:nonzero;stroke:none"
           d="m 1949.82,3153.11 -71.75,-301.8 57.91,0 75.29,316.62 -61.45,-14.82" />
      </g>
    </g>
    <g
       id="g140"
       transform="matrix(0.125,0,0,-0.125,101.89964,756.36763)">
      <g
         clip-path="url(#clipPath144)"
         id="g142">
        <path
           inkscape:connector-curvature="0"
           id="path156"
           style="fill:url(#linearGradient148);fill-opacity:1;fill-rule:nonzero;stroke:none"
           d="m 1868.52,3175.06 c -24.59,0 -47.61,-4.89 -69.03,-14.65 l -0.25,9.55 -6.19,0 -51.41,-12.41 -72.83,-306.24 57.86,0 52.33,220.06 c 5.04,21.19 20.01,36.04 44.89,44.54 10.59,3.38 21.36,5.09 32.38,5.09 11.03,0 21.63,-2.78 31.79,-8.29 l 27.11,55.33 c -23.47,4.67 -39,7.02 -46.65,7.02" />
      </g>
    </g>
    <g
       id="g158"
       transform="matrix(0.125,0,0,-0.125,101.89964,756.36763)">
      <g
         clip-path="url(#clipPath162)"
         id="g160">
        <path
           inkscape:connector-curvature="0"
           id="path174"
           style="fill:url(#linearGradient166);fill-opacity:1;fill-rule:nonzero;stroke:none"
           d="m 1360.33,3154.89 -72.19,-303.58 57.92,0 75.72,318.44 -61.45,-14.86" />
      </g>
    </g>
    <g
       id="g176"
       transform="matrix(0.125,0,0,-0.125,101.89964,756.36763)">
      <g
         clip-path="url(#clipPath180)"
         id="g178">
        <path
           inkscape:connector-curvature="0"
           id="path192"
           style="fill:url(#linearGradient184);fill-opacity:1;fill-rule:nonzero;stroke:none"
           d="m 1008.07,3145.8 c -13.175,19.47 -35.011,29.26 -65.55,29.26 -28.665,0 -72.864,-14.34 -109.161,-30.88 -0.117,0.14 -0.211,0.27 -0.316,0.41 -0.059,-0.04 -0.113,-0.07 -0.168,-0.09 -0.457,0.65 -1.02,1.22 -1.504,1.84 -8.328,8.91 -18.777,16.49 -31.484,22.64 -11.035,3.97 -23.828,6.08 -38.617,6.08 -22.051,0 -43.196,-5.1 -63.426,-15.26 l 1.961,11.9 -59.106,-14.18 -72.816,-306.21 57.91,0 60.191,253.15 c 22.649,11.45 42.625,17.15 60.016,17.15 17.391,0 30.797,-5.7 40.137,-17.15 9.394,-11.46 11.258,-28.83 5.718,-52.14 l -47.796,-201.01 57.867,0 52.508,220.89 -0.125,0.04 c 0.996,9.77 0.668,19.27 -0.852,28.51 l 19.887,10.7 c 18.922,6.37 34.683,9.55 47.414,9.55 33.484,0 44.894,-22.48 34.215,-67.44 l -48.086,-202.25 57.863,0 52.33,220.06 c 7.16,30.12 4.13,54.9 -9.01,74.43" />
      </g>
    </g>
    <g
       id="g194"
       transform="matrix(0.125,0,0,-0.125,101.89964,756.36763)">
      <g
         clip-path="url(#clipPath198)"
         id="g196">
        <path
           inkscape:connector-curvature="0"
           id="path210"
           style="fill:url(#linearGradient202);fill-opacity:1;fill-rule:nonzero;stroke:none"
           d="m 1260.65,3162.98 c -19.16,8.45 -39.26,12.7 -60.23,12.7 -14.33,0 -34.09,-3.39 -49.34,-7.45 l -13.85,-56.18 c 6.08,1.43 14.57,2.38 19.63,3.37 8.14,1.58 16.7,2.4 25.69,2.4 22.05,0 37.18,-5.75 45.49,-17.18 7.36,-10.18 8.85,-24.39 4.5,-42.59 l -25.7,-108.12 c -3.02,-12.74 -9.67,-23.25 -19.92,-31.51 -10.22,-8.25 -21.89,-13.76 -35.09,-16.53 -13.17,-2.75 -26.34,-4.15 -39.44,-4.15 -13.14,0 -25.36,1.3 -36.61,3.84 l 93.53,393.24 -61.44,-14.84 -101.94,-428.67 c 35.27,-5.06 68.35,-7.6 99.3,-7.6 30.95,0 60.47,6.34 88.5,19.08 37.11,16.95 60.65,46.42 70.65,88.39 l 28.59,120.19 c 10.57,44.54 -0.23,75.04 -32.32,91.61" />
      </g>
    </g>
    <path
       inkscape:connector-curvature="0"
       id="path212"
       style="fill:#918f90;fill-opacity:1;fill-rule:nonzero;stroke:none"
       d="m 391.56214,365.40888 5.26125,-22.13 -7.61125,1.83625 -14.67625,61.70375 c -1.085,4.56125 -0.96125,8.28125 0.3675,11.0575 1.34875,2.84125 4.12,4.92 8.23125,6.1775 l 0.8125,0.24875 3.4875,-5.8275 -1.25125,-0.43875 c -4.49375,-1.57875 -5.9525,-4.98375 -4.58875,-10.71625 l 8.33,-35.015 11.91375,0 4.83375,-6.89625 -15.11,0" />
    <path
       inkscape:connector-curvature="0"
       id="path214"
       style="fill:#918f90;fill-opacity:1;fill-rule:nonzero;stroke:none"
       d="m 369.64839,366.92388 -13.26125,55.75125 7.18,0 13.69375,-57.59 -7.6125,1.83875" />
    <path
       inkscape:connector-curvature="0"
       id="path216"
       style="fill:#918f90;fill-opacity:1;fill-rule:nonzero;stroke:none"
       d="m 353.00214,399.78513 c 0.80375,0 1.57375,-0.30625 2.28625,-0.91125 0.69625,-0.59125 1.14,-1.2875 1.32,-2.06375 0.2025,-0.84375 0.0537,-1.63 -0.43625,-2.27875 -0.5,-0.65125 -1.21875,-0.995 -2.07875,-0.995 -0.80375,0 -1.57625,0.285 -2.2925,0.8425 -0.73125,0.56125 -1.2,1.25125 -1.39,2.05125 -0.2,0.84875 -0.0375,1.64875 0.4725,2.315 0.51625,0.68 1.24875,1.04 2.11875,1.04" />
    <path
       inkscape:connector-curvature="0"
       id="path240"
       style="fill:#918f90;fill-opacity:1;fill-rule:nonzero;stroke:none"
       d="m 378.89839,353.97763 -7.29875,1.63625 1.4325,-7.09375 7.2975,-1.84125 -1.43125,7.29875" />
    <g
       id="g242"
       transform="matrix(0.125,0,0,-0.125,101.89964,756.36763)">
      <g
         clip-path="url(#clipPath246)"
         id="g244">
        <path
           inkscape:connector-curvature="0"
           id="path258"
           style="fill:url(#linearGradient250);fill-opacity:1;fill-rule:nonzero;stroke:none"
           d="m 190.535,2903.93 c 20.09,0 46.52,6.21 65.809,11.89 l 2.207,-56.35 c -29.75,-7.43 -62.735,-14.52 -85.442,-14.52 -22.722,0 -44.16,3.5 -64.32,10.48 -41.8788,14.86 -55.4218,53.08 -40.6445,114.68 l 20.1289,83.87 c 7.4336,31.02 19.7926,57.01 37.0586,77.98 29.664,36.26 68.52,54.39 116.582,54.39 35.024,0 60.66,-13.25 87.844,-32.79 l -33.395,-46.42 c -20.117,13.99 -33.281,21.65 -54.195,21.55 -15.508,-0.08 -29.027,-2.19 -40.559,-6.55 -27.527,-10.93 -45.109,-32.34 -52.761,-64.23 l -22.797,-95.01 c -9.434,-39.31 12.062,-58.97 64.484,-58.97" />
      </g>
    </g>
    <path
       inkscape:connector-curvature="0"
       id="path260"
       style="fill:#918f90;fill-opacity:1;fill-rule:nonzero;stroke:none"
       d="m 106.76829,384.08763 2.41163,-10.04875 c 0.94775,-3.955 2.5581,-7.3325 4.78662,-10.03875 1.86573,-2.28 4.02835,-4.01375 6.46535,-5.20625 -4.40575,0.6375 -8.06887,2.7375 -10.98781,6.305 -2.06836,2.5125 -3.54884,5.6275 -4.43995,9.3425 l -2.41162,10.04875 c -1.77099,7.38 -0.14892,11.96125 4.86866,13.74 1.1958,0.41375 2.42725,0.725 3.69677,0.935 -3.53369,-1.88375 -6.5625,-6.0225 -4.38965,-15.0775" />
  </g>
</svg>
